<svg id="USA" xmlns="http://www.w3.org/2000/svg" width="72" height="72" viewBox="0 0 72 72">
  <g id="Group_9" data-name="Group 9" transform="translate(0 6.61)">
    <path id="Path_8" data-name="Path 8" d="M71.848,215.9H.152C.061,216.949,0,218.012,0,219.076c0,1.14.061,2.264.167,3.358H71.833c.106-1.109.167-2.234.167-3.358C72,218.012,71.939,216.949,71.848,215.9Z" transform="translate(0 -189.702)" fill="#f3f4f5"/>
    <path id="Path_9" data-name="Path 9" d="M93.371,50.05h16.005a35.986,35.986,0,0,0-7.037-6.55H60.753A36.986,36.986,0,0,0,53.7,50.05H93.371Z" transform="translate(-45.538 -43.5)" fill="#f3f4f5"/>
    <path id="Path_10" data-name="Path 10" d="M57.879,136.25H78.125a36.358,36.358,0,0,0-2.554-6.55H11.354A36.359,36.359,0,0,0,8.8,136.25H57.879Z" transform="translate(-7.462 -116.601)" fill="#f3f4f5"/>
    <path id="Path_11" data-name="Path 11" d="M58.188,302.1H9.2a35.419,35.419,0,0,0,2.6,6.55h64.02a36.071,36.071,0,0,0,2.6-6.55Z" transform="translate(-7.802 -262.802)" fill="#f3f4f5"/>
    <path id="Path_12" data-name="Path 12" d="M93.255,388.3H54.8a36.109,36.109,0,0,0,7.144,6.55H103a36.109,36.109,0,0,0,7.144-6.55H93.255Z" transform="translate(-46.471 -335.903)" fill="#f3f4f5"/>
  </g>
  <g id="Group_10" data-name="Group 10" transform="translate(0.137)">
    <path id="Path_13" data-name="Path 13" d="M89.8,93.15h0a35.41,35.41,0,0,0-4.271-6.55H29.871A35.41,35.41,0,0,0,25.6,93.15H89.8Z" transform="translate(-21.846 -73.44)" fill="#e51d35"/>
    <path id="Path_14" data-name="Path 14" d="M8.8,172.8h0Z" transform="translate(-7.599 -146.541)" fill="#e73625"/>
    <path id="Path_15" data-name="Path 15" d="M101.8,431.4h0a35.72,35.72,0,0,0,19,6.4.935.935,0,0,1,.213.015,1.84,1.84,0,0,1,.289.015,1.938,1.938,0,0,1-.289-.015c.426.015.866.03,1.307.03h0a35.941,35.941,0,0,0,20.535-6.428h0L101.8,431.4Z" transform="translate(-86.464 -365.843)" fill="#e51d35"/>
    <path id="Path_16" data-name="Path 16" d="M1,215.9H1Z" transform="translate(-0.985 -183.091)" fill="#e73625"/>
    <path id="Path_17" data-name="Path 17" d="M72.766,259H1.1a35.865,35.865,0,0,0,1.231,6.55h69.2A35.864,35.864,0,0,0,72.766,259Z" transform="translate(-1.07 -219.642)" fill="#e51d35"/>
    <path id="Path_18" data-name="Path 18" d="M129.952,6.61h11.719A35.88,35.88,0,0,0,122.99.061h0c-.7-.046-1.4-.061-2.113-.061s-1.414.03-2.1.061A35.747,35.747,0,0,0,100.1,6.61h29.852Z" transform="translate(-85.022)" fill="#e51d35"/>
    <path id="Path_19" data-name="Path 19" d="M51.621,179.35H72.611a35.83,35.83,0,0,0-1.2-6.55H2.1a35.83,35.83,0,0,0-1.2,6.55H51.621Z" transform="translate(-0.9 -146.541)" fill="#e51d35"/>
    <path id="Path_20" data-name="Path 20" d="M71.731,345.2H26.3a35.7,35.7,0,0,0,4.332,6.55H85.988a35.7,35.7,0,0,0,4.332-6.55Z" transform="translate(-22.439 -292.742)" fill="#e51d35"/>
  </g>
  <path id="Path_21" data-name="Path 21" d="M36.1.1A36,36,0,0,0,1,32.833H36.1V.1Z" transform="translate(-0.848 -0.085)" fill="#29337a"/>
  <g id="Group_11" data-name="Group 11" transform="translate(1.201 2.492)">
    <path id="Path_22" data-name="Path 22" d="M34.426,134.2l.547,1.687h1.778l-1.444,1.049.547,1.687-1.429-1.049-1.444,1.049.547-1.687L32.1,135.887h1.778Z" transform="translate(-28.422 -116.299)" fill="#f3f4f5"/>
    <path id="Path_23" data-name="Path 23" d="M34.426,173.4l.547,1.7h1.778l-1.444,1.033.547,1.687-1.429-1.033-1.444,1.033.547-1.687L32.1,175.1h1.778Z" transform="translate(-28.422 -149.542)" fill="#f3f4f5"/>
    <path id="Path_24" data-name="Path 24" d="M73.626,75.3l.562,1.687h1.763l-1.429,1.049.547,1.687-1.444-1.049L72.2,79.722l.547-1.687L71.3,76.987h1.778Z" transform="translate(-61.664 -66.349)" fill="#f3f4f5"/>
    <path id="Path_25" data-name="Path 25" d="M73.626,114.6l.562,1.687h1.763l-1.429,1.033.547,1.7-1.444-1.049L72.2,119.022l.547-1.7L71.3,116.287h1.778Z" transform="translate(-61.664 -99.677)" fill="#f3f4f5"/>
    <path id="Path_26" data-name="Path 26" d="M73.626,153.8l.562,1.687h1.763l-1.429,1.049.547,1.687-1.444-1.049L72.2,158.222l.547-1.687L71.3,155.487h1.778Z" transform="translate(-61.664 -132.92)" fill="#f3f4f5"/>
    <path id="Path_27" data-name="Path 27" d="M9.374,166.957l-.547-1.687,1.444-1.049H8.478l-.046-.122c-.2.608-.365,1.216-.532,1.824l.03-.015Z" transform="translate(-7.9 -141.655)" fill="#f3f4f5"/>
    <path id="Path_28" data-name="Path 28" d="M37.222,99.322l1.444-1.049,1.444,1.049-.547-1.687,1.444-1.049H39.213L38.666,94.9l-.547,1.687h-.654c-.122.182-.243.365-.365.562l.669.486Z" transform="translate(-32.662 -82.971)" fill="#f3f4f5"/>
    <path id="Path_29" data-name="Path 29" d="M78.544,48.8l1.429,1.049-.532-1.7L80.869,47.1H79.836c-.866.653-1.718,1.337-2.523,2.067l-.213.669Z" transform="translate(-66.582 -42.435)" fill="#f3f4f5"/>
    <path id="Path_30" data-name="Path 30" d="M116.5,28.963l1.444-1.049,1.429,1.049-.547-1.687,1.429-1.049h-1.778L118.4,26c-.608.3-1.2.623-1.778.973l.41.3Z" transform="translate(-99.993 -24.541)" fill="#f3f4f5"/>
    <path id="Path_31" data-name="Path 31" d="M112.926,55.7l.547,1.687h1.778l-1.444,1.049.562,1.687-1.444-1.049L111.5,60.122l.547-1.687L110.6,57.387h1.778Z" transform="translate(-94.99 -49.728)" fill="#f3f4f5"/>
    <path id="Path_32" data-name="Path 32" d="M112.926,94.9l.547,1.687h1.778l-1.444,1.049.562,1.687-1.444-1.033L111.5,99.322l.547-1.687L110.6,96.587h1.778Z" transform="translate(-94.99 -82.971)" fill="#f3f4f5"/>
    <path id="Path_33" data-name="Path 33" d="M112.926,134.2l.547,1.687h1.778l-1.444,1.049.562,1.687-1.444-1.049-1.429,1.049.547-1.687-1.444-1.049h1.778Z" transform="translate(-94.99 -116.299)" fill="#f3f4f5"/>
    <path id="Path_34" data-name="Path 34" d="M112.926,173.4l.547,1.7h1.778l-1.444,1.033.562,1.687-1.444-1.033-1.429,1.033.547-1.687L110.6,175.1h1.778Z" transform="translate(-94.99 -149.542)" fill="#f3f4f5"/>
    <path id="Path_35" data-name="Path 35" d="M152.226,36l.547,1.7h1.778l-1.444,1.033.547,1.687-1.429-1.033-1.444,1.033.547-1.687L149.9,37.7h1.778Z" transform="translate(-128.317 -33.022)" fill="#f3f4f5"/>
    <path id="Path_36" data-name="Path 36" d="M152.226,75.3l.547,1.687h1.778l-1.444,1.049.547,1.687-1.429-1.049-1.444,1.049.547-1.687L149.9,76.987h1.778Z" transform="translate(-128.317 -66.349)" fill="#f3f4f5"/>
    <path id="Path_37" data-name="Path 37" d="M152.226,114.6l.547,1.687h1.778l-1.444,1.033.547,1.7-1.429-1.049-1.444,1.049.547-1.7-1.429-1.033h1.778Z" transform="translate(-128.317 -99.677)" fill="#f3f4f5"/>
    <path id="Path_38" data-name="Path 38" d="M152.226,153.8l.547,1.687h1.778l-1.444,1.049.547,1.687-1.429-1.049-1.444,1.049.547-1.687-1.429-1.049h1.778Z" transform="translate(-128.317 -132.92)" fill="#f3f4f5"/>
    <path id="Path_39" data-name="Path 39" d="M191.426,16.4l.547,1.687h1.778l-1.429,1.049.547,1.687-1.444-1.049L190,20.822l.547-1.687L189.1,18.087h1.778Z" transform="translate(-161.559 -16.4)" fill="#f3f4f5"/>
    <path id="Path_40" data-name="Path 40" d="M191.426,55.7l.547,1.687h1.778l-1.429,1.049.547,1.687-1.444-1.049L190,60.122l.547-1.687L189.1,57.387h1.778Z" transform="translate(-161.559 -49.728)" fill="#f3f4f5"/>
    <path id="Path_41" data-name="Path 41" d="M191.426,94.9l.547,1.687h1.778l-1.429,1.049.547,1.687-1.444-1.033L190,99.322l.547-1.687L189.1,96.587h1.778Z" transform="translate(-161.559 -82.971)" fill="#f3f4f5"/>
    <path id="Path_42" data-name="Path 42" d="M191.426,134.2l.547,1.687h1.778l-1.429,1.049.547,1.687-1.444-1.049L190,138.622l.547-1.687-1.444-1.049h1.778Z" transform="translate(-161.559 -116.299)" fill="#f3f4f5"/>
    <path id="Path_43" data-name="Path 43" d="M191.426,173.4l.547,1.7h1.778l-1.429,1.033.547,1.687-1.444-1.033L190,177.822l.547-1.687L189.1,175.1h1.778Z" transform="translate(-161.559 -149.542)" fill="#f3f4f5"/>
  </g>
</svg>
